# xmcd
#
# Track frame offsets: 
#        150
#        9983
#        24521
#        35263
#        45346
#        58922
#        71906
#        80149
#        93387
#        103010
#        115898
#        131328
#        142090
#        151465
#        161798
#        175296
#        192808
#        203583
#
# Disc length: 2936 seconds
#
# Revision: 0
# Processed by: cddbd v1.5.2PL0 Copyright (c) Steve Scherf et al.
# Submitted via: ExactAudioCopyFreeDBPlugin 1.0
#
DISCID=f50b7612
DTITLE=Summer Walker - Over It
DYEAR=2019
DGENRE=No, thanks.
TTITLE0=Over It
TTITLE1=Body
TTITLE2=Playing Games (Extended Version) feat. Bryson Tiller
TTITLE3=Drunk Dialing…LODT
TTITLE4=Come Thru feat. Usher
TTITLE5=Potential
TTITLE6=Fun Girl
TTITLE7=Tonight
TTITLE8=Me
TTITLE9=Like It feat. 6LACK
TTITLE10=Just Might feat. PARTYNEXTDOOR
TTITLE11=Stretch You Out feat. A Boogie Wit Da Hoodie
TTITLE12=Off of You
TTITLE13=Anna Mae
TTITLE14=I’ll Kill You feat. Jhené Aiko
TTITLE15=Nobody Else
TTITLE16=Playing Games
TTITLE17=Girls Need Love (Remix) feat. Drake
EXTD=
EXTT0=
EXTT1=
EXTT2=
EXTT3=
EXTT4=
EXTT5=
EXTT6=
EXTT7=
EXTT8=
EXTT9=
EXTT10=
EXTT11=
EXTT12=
EXTT13=
EXTT14=
EXTT15=
EXTT16=
EXTT17=
PLAYORDER=
